TITLE ""
FILE "Disc2Track16.mp3" MP3
  TRACK 01 AUDIO
    TITLE "Disc2Track16_01"
    INDEX 01 00:00:00
  TRACK 02 AUDIO
    TITLE "Disc2Track16_02"
    INDEX 01 00:05:21
  TRACK 03 AUDIO
    TITLE "Disc2Track16_03"
    INDEX 01 00:05:37
  TRACK 04 AUDIO
    TITLE "Disc2Track16_04"
    INDEX 01 00:06:70
  TRACK 05 AUDIO
    TITLE "Disc2Track16_05"
    INDEX 01 00:09:01
  TRACK 06 AUDIO
    TITLE "Disc2Track16_06"
    INDEX 01 00:10:32
  TRACK 07 AUDIO
    TITLE "Disc2Track16_07"
    INDEX 01 00:14:30
  TRACK 08 AUDIO
    TITLE "Disc2Track16_08"
    INDEX 01 00:14:63
  TRACK 09 AUDIO
    TITLE "Disc2Track16_09"
    INDEX 01 00:16:31
  TRACK 10 AUDIO
    TITLE "Disc2Track16_10"
    INDEX 01 00:17:36
  TRACK 11 AUDIO
    TITLE "Disc2Track16_11"
    INDEX 01 00:19:02
  TRACK 12 AUDIO
    TITLE "Disc2Track16_12"
    INDEX 01 00:25:02
  TRACK 13 AUDIO
    TITLE "Disc2Track16_13"
    INDEX 01 00:25:36
  TRACK 14 AUDIO
    TITLE "Disc2Track16_14"
    INDEX 01 00:27:03
  TRACK 15 AUDIO
    TITLE "Disc2Track16_15"
    INDEX 01 00:28:28
  TRACK 16 AUDIO
    TITLE "Disc2Track16_16"
    INDEX 01 00:29:71
  TRACK 17 AUDIO
    TITLE "Disc2Track16_17"
    INDEX 01 00:33:12
  TRACK 18 AUDIO
    TITLE "Disc2Track16_18"
    INDEX 01 00:33:43
  TRACK 19 AUDIO
    TITLE "Disc2Track16_19"
    INDEX 01 00:35:03
  TRACK 20 AUDIO
    TITLE "Disc2Track16_20"
    INDEX 01 00:36:04
  TRACK 21 AUDIO
    TITLE "Disc2Track16_21"
    INDEX 01 00:37:39
  TRACK 22 AUDIO
    TITLE "Disc2Track16_22"
    INDEX 01 00:42:40
  TRACK 23 AUDIO
    TITLE "Disc2Track16_23"
    INDEX 01 00:42:71
  TRACK 24 AUDIO
    TITLE "Disc2Track16_24"
    INDEX 01 00:44:19
  TRACK 25 AUDIO
    TITLE "Disc2Track16_25"
    INDEX 01 00:45:70
  TRACK 26 AUDIO
    TITLE "Disc2Track16_26"
    INDEX 01 00:47:18
  TRACK 27 AUDIO
    TITLE "Disc2Track16_27"
    INDEX 01 00:50:67
  TRACK 28 AUDIO
    TITLE "Disc2Track16_28"
    INDEX 01 00:51:23
  TRACK 29 AUDIO
    TITLE "Disc2Track16_29"
    INDEX 01 00:52:50
  TRACK 30 AUDIO
    TITLE "Disc2Track16_30"
    INDEX 01 00:55:45
  TRACK 31 AUDIO
    TITLE "Disc2Track16_31"
    INDEX 01 00:56:70
  TRACK 32 AUDIO
    TITLE "Disc2Track16_32"
    INDEX 01 01:00:61
  TRACK 33 AUDIO
    TITLE "Disc2Track16_33"
    INDEX 01 01:01:18
  TRACK 34 AUDIO
    TITLE "Disc2Track16_34"
    INDEX 01 01:02:54
  TRACK 35 AUDIO
    TITLE "Disc2Track16_35"
    INDEX 01 01:04:61
  TRACK 36 AUDIO
    TITLE "Disc2Track16_36"
    INDEX 01 01:06:21
  TRACK 37 AUDIO
    TITLE "Disc2Track16_37"
    INDEX 01 01:11:22
  TRACK 38 AUDIO
    TITLE "Disc2Track16_38"
    INDEX 01 01:11:53
  TRACK 39 AUDIO
    TITLE "Disc2Track16_39"
    INDEX 01 01:13:19
  TRACK 40 AUDIO
    TITLE "Disc2Track16_40"
    INDEX 01 01:14:66
  TRACK 41 AUDIO
    TITLE "Disc2Track16_41"
    INDEX 01 01:16:33
  TRACK 42 AUDIO
    TITLE "Disc2Track16_42"
    INDEX 01 01:16:72
  TRACK 43 AUDIO
    TITLE "Disc2Track16_43"
    INDEX 01 01:18:26
  TRACK 44 AUDIO
    TITLE "Disc2Track16_44"
    INDEX 01 01:20:50
  TRACK 45 AUDIO
    TITLE "Disc2Track16_45"
    INDEX 01 01:22:02
  TRACK 46 AUDIO
    TITLE "Disc2Track16_46"
    INDEX 01 01:25:42
  TRACK 47 AUDIO
    TITLE "Disc2Track16_47"
    INDEX 01 01:25:73
  TRACK 48 AUDIO
    TITLE "Disc2Track16_48"
    INDEX 01 01:27:37
  TRACK 49 AUDIO
    TITLE "Disc2Track16_49"
    INDEX 01 01:29:22
  TRACK 50 AUDIO
    TITLE "Disc2Track16_50"
    INDEX 01 01:30:63
